<svg enable-background="new 0 0 448.5 530.2" viewBox="0 0 448.5 530.2" xmlns="http://www.w3.org/2000/svg"><g fill="#fff"><path d="m300.7 156.2c-11.1 0-16.8 4.4-21.8 8.3-4.6 3.6-8.2 6.4-16.2 6.4-7.9 0-11.6-2.8-16.2-6.4-5-3.9-10.8-8.3-21.8-8.3-11.1 0-16.8 4.4-21.8 8.3-4.6 3.6-8.2 6.4-16.2 6.4-7.9 0-11.6-2.8-16.2-6.4-5-3.9-10.8-8.3-21.8-8.3s-16.8 4.4-21.8 8.3c-4.6 3.6-8.2 6.4-16.2 6.4v9.3c11.1 0 16.8-4.4 21.8-8.3 4.6-3.6 8.2-6.4 16.2-6.4 7.9 0 11.6 2.8 16.2 6.4 5 3.9 10.8 8.3 21.8 8.3 11.1 0 16.8-4.4 21.8-8.3 4.6-3.6 8.2-6.4 16.2-6.4 7.9 0 11.6 2.8 16.2 6.4 5 3.9 10.8 8.3 21.8 8.3 11.1 0 16.8-4.4 21.8-8.3 4.6-3.6 8.2-6.4 16.2-6.4z"/><circle cx="321" cy="160.8" r="6.8"/><path d="m317.9 192.8c-.9 3.7-2.7 7-5.1 10.1l8.1 4.6c3.2-4.4 5.5-9.2 6.5-14.7zm29.9-56.4c-2.2-28.7-19-44.5-47.2-44.5-11.1 0-16.8 4.4-21.8 8.3-4.6 3.6-8.2 6.4-16.2 6.4-7.9 0-11.6-2.8-16.2-6.4-5-3.9-10.8-8.3-21.8-8.3-11.1 0-16.8 4.4-21.8 8.3-4.6 3.6-8.2 6.4-16.2 6.4-7.9 0-11.6-2.8-16.2-6.4-5-3.9-10.8-8.3-21.8-8.3s-16.8 4.4-21.8 8.3c-4.6 3.6-8.2 6.4-16.2 6.4v9.3c11.1 0 16.8-4.4 21.8-8.3 4.6-3.6 8.2-6.4 16.2-6.4 7.9 0 11.6 2.8 16.2 6.4 5 3.9 10.8 8.3 21.8 8.3 11.1 0 16.8-4.4 21.8-8.3 4.6-3.5 8.2-6.4 16.2-6.4 7.9 0 11.6 2.8 16.2 6.4 5 3.9 10.8 8.3 21.8 8.3 11.1 0 16.8-4.4 21.8-8.3 4.6-3.6 8.2-6.4 16.2-6.4 21.5 0 34 10.3 37.3 30.7-5.6 1.1-10.4 1.3-17.1-2.5-4.1-2.4-9.3-5.3-20.1-5.3-11.1 0-16.8 4.4-21.8 8.3-4.6 3.6-8.2 6.4-16.2 6.4-7.9 0-11.6-2.8-16.2-6.4-5-3.9-10.8-8.3-21.8-8.3-11.1 0-16.8 4.4-21.8 8.3-4.6 3.6-8.2 6.4-16.2 6.4-7.9 0-11.6-2.8-16.2-6.4-5-3.9-10.8-8.3-21.8-8.3-4.9 0-8.7.8-11.9 2.1-4.1 1.6-7.1 4-10 6.2s-5.4 4.1-8.8 5.3c-.7.2-1.4.4-2.2.6s-1.6.3-2.4.4c-.9.1-1.8.1-2.8.1v9.3c11.1 0 16.8-4.4 21.8-8.3 4.6-3.6 8.2-6.4 16.2-6.4 7.9 0 11.6 2.8 16.2 6.4 5 3.9 10.8 8.3 21.8 8.3 11.1 0 16.8-4.4 21.8-8.3 4.6-3.6 8.2-6.4 16.2-6.4 7.4 0 11.1 2.5 15.3 5.7.3.2.6.4.9.7 5 3.9 10.8 8.3 21.8 8.3 11.1 0 16.8-4.4 21.8-8.3 4.6-3.6 8.2-6.4 16.2-6.4 8.3 0 11.8 2 15.5 4.1 5.8 3.3 10.9 5.5 22.4 3.7v42.4c-3.8-.1-8.9-.2-11-.3v9.3c3.9.1 15 .3 15.5.3l4.7.1v-56.3z"/><path d="m423 420.8h-396.5v-401.3h396.5zm-387.2-9.3h377.9v-382.7h-377.9z"/><circle cx="320.6" cy="274.2" r="6.8"/><path d="m366.1 264.9-1.5 1.2c-4.6 3.5-8.2 6.4-16.2 6.4-1.4-11.7-8.3-22.6-20.4-32.4-3.3-2.7-7-5.3-11.1-7.8l-8.1 6c14.8 8.4 29.8 21 30.5 37.7l-17.1 31.3c-2.5 0-6.4-.1-10.9 0-3.7-5.7-14.5-17.4-40.8-17.4-2.9-13.5-4.2-40.2 23.8-58.7l9-6.1c-.4-.2-.7-.3-1.1-.5l-5.3-3.1c-25.2-14.7-51.9-17.7-79.4-8.9-15.2 4.8-30.5 13.4-45.4 25.3-.6-.4-1.2-.9-1.8-1.3-5-3.9-10.8-8.3-21.8-8.3-11.1 0-16.8 4.4-21.8 8.3-4.6 3.6-8.2 6.4-16.2 6.4v9.3c11.1 0 16.8-4.4 21.8-8.3 4.6-3.6 8.2-6.4 16.2-6.4 7.9 0 11.6 2.8 16.2 6.4l.1.1c-6.8 6-13.5 12.6-20 19.9-20.4 22.8-38.6 51.1-52.7 81.9h10.3c35.3-75 83.9-113.4 118.1-124.3 22.4-7.2 44.3-5.6 65.2 4.5-11.8 8.8-19.7 19.8-23.5 32.8-3.5 12.3-2.6 23.8-.9 32.4-8.5 3.2-17.1 13-26.1 29.6-5.5 10.1-9.6 20-11.5 25h10c2.2-5.2 5.6-12.9 9.7-20.6 7.4-13.5 14.7-22.3 20.6-25l9.8 26.7-9.3 18.9h10.4l9-18.4-10.3-28c24.2.9 30.3 13.5 30.7 14.5l1.1 3 3.3-.1c8.7-.2 16.1 0 16.1 0l2.8.1 19.1-34.9c.5 0 1.1.1 1.6.1 11.1 0 16.8-4.4 21.8-8.3.5-.4 1-.7 1.4-1.1z"/><path d="m150.2 345.5 18.9-34c4.4 1.7 11.6 4.1 17.5 4.1 11.1 0 16.8-4.4 21.8-8.3.5-.4 1-.7 1.4-1.1l-5.6-7.4-1.5 1.2c-4.6 3.5-8.2 6.4-16.2 6.4-5.6 0-14.6-3.6-17.6-4.9l-3.9-1.8-25.6 45.9h10.8zm-12.7 159.5v-23.7l-.2.1c-3.5 1.2-5.4 1.7-8.5 1.9h-.1v21.7h-8.9v-51.5c0-7.2 3.4-10.9 10.2-10.9h6.2c6.8 0 10.2 3.7 10.2 10.9v51.5zm-5.5-54.2c-2.2 0-3.3 1.1-3.3 3.3v21.1h.1c3.1-.3 4.9-.7 8.6-2h.1v-19c0-2.2-1.1-3.3-3.3-3.3h-2.2zm-105.6-8.2h8.9v62.4h-8.9zm22 62.4v-62.4h14.7c7.9 0 11.9 4.1 11.9 12.2v40.9c0 6.2-3.4 9.3-10.2 9.3zm9-8.2h5.9c2.9 0 2.9-1.8 2.9-2.4v-39.5c0-2.8-1.1-4.1-3.4-4.1h-5.4zm30.3 8.2v-62.4h21.2v8.2h-12.3v18h10.9v8.2h-10.9v19.8h12.3v8.2zm71.1 0v-62.4h8.9v54.2h11.4v8.2zm49.8 0v-62.4h21.1v8.2h-12.2v18h10.8v8.2h-10.8v19.8h12.2v8.2zm42.6 0c-6.8 0-10.2-4.1-10.2-12.1v-50.3h8.9v50.5c0 2.5 1 3.7 3.3 3.7h3.4c1.3 0 3-.4 3-3.7v-50.5h8.9v50.4c0 8-3.5 12-10.3 12zm78.8 0c-6.8 0-10.3-3.6-10.3-10.8v-40.7c0-7.2 3.4-10.9 10.2-10.9h7.9c6.8 0 10.2 3.7 10.2 10.9v40.7c0 7.2-3.5 10.8-10.3 10.8zm1.8-54.2c-2.2 0-3.3 1-3.3 3.3v39.5c0 2.2 1.1 3.3 3.4 3.3h4.2c2 0 2.9-1.1 2.9-3.3v-39.6c0-2.2-1.1-3.3-3.4-3.3zm28.9 54.2v-62.4h15.3c6.8 0 10.3 3.7 10.3 10.9v19.5c0 8.7-13.4 10.4-16.6 10.4h-.1v21.6zm8.9-30.5h.1c2.6-.2 5.7-.6 8.2-2h.1v-18.5c0-2.2-1.1-3.3-3.4-3.3h-5.1zm44.5 30.5v-23.7l-.2.1c-3.5 1.2-5.4 1.7-8.5 1.9h-.1v21.7h-8.9v-51.5c0-7.2 3.4-10.9 10.2-10.9h6.2c6.8 0 10.2 3.7 10.2 10.9v51.5zm-5.5-54.2c-2.2 0-3.3 1.1-3.3 3.3v21.1h.1c3.1-.3 4.9-.7 8.6-2h.1v-19c0-2.2-1-3.3-3.3-3.3h-2.2zm-108.3 54.2-4.9-22.7h-.1c-1.9.5-3.4.4-4.7.5h-.1v22.2h-8.9v-62.4h15.3c6.7 0 10.4 3.9 10.4 10.9v19.9c0 4.3-4.4 6.5-4.4 6.5l5.9 25h-8.5zm-9.8-30.5h.1c1.4-.1 5.5-.4 8.2-1.9h.1v-17.7c0-2.8-1.1-4.1-3.4-4.1h-5.1z"/></g></svg>